<svg width="62" height="58" viewBox="0 0 62 58" fill="none" xmlns="http://www.w3.org/2000/svg">
<path d="M17.3794 33.2874L26.5558 24.1109L6.48437 4.07188C4.92794 2.51545 2.23661 2.93699 1.26385 4.94737C-1.03837 9.77879 -0.195306 15.7127 3.79304 19.7334L17.3794 33.2874ZM39.3639 27.4183C44.3251 29.7205 51.2966 28.0993 56.4522 22.9436C62.6455 16.7503 63.8453 7.86568 59.0787 3.09911C54.3446 -1.63502 45.4599 -0.467703 39.2342 5.72559C34.0786 10.8813 32.4573 17.8528 34.7595 22.8139L5.3819 52.1915C4.77561 52.7978 4.435 53.6201 4.435 54.4775C4.435 55.3349 4.77561 56.1572 5.3819 56.7635C5.98818 57.3698 6.81049 57.7104 7.6679 57.7104C8.52532 57.7104 9.34762 57.3698 9.95391 56.7635L30.0254 36.7569L50.0644 56.7959C50.3646 57.0961 50.721 57.3343 51.1132 57.4967C51.5054 57.6592 51.9258 57.7428 52.3504 57.7428C52.7749 57.7428 53.1953 57.6592 53.5876 57.4967C53.9798 57.3343 54.3362 57.0961 54.6364 56.7959C54.9366 56.4957 55.1747 56.1393 55.3372 55.7471C55.4997 55.3549 55.5833 54.9345 55.5833 54.5099C55.5833 54.0854 55.4997 53.665 55.3372 53.2727C55.1747 52.8805 54.9366 52.5241 54.6364 52.2239L34.5974 32.1849L39.3639 27.4183Z" fill="#2091F9"/>
</svg>
