<svg width="35" height="28" viewBox="0 0 35 28" fill="none" xmlns="http://www.w3.org/2000/svg">
<path d="M34.1449 4.12548C32.9201 4.65382 31.5873 5.03407 30.2144 5.18217C31.6398 4.33536 32.7072 2.99755 33.2163 1.41972C31.8788 2.2154 30.4135 2.77334 28.8855 3.06879C28.2469 2.38606 27.4745 1.84216 26.6165 1.47099C25.7584 1.09982 24.8332 0.909328 23.8983 0.911394C20.1158 0.911394 17.0739 3.97738 17.0739 7.73982C17.0739 8.26817 17.1379 8.79651 17.242 9.30484C11.5783 9.00865 6.52702 6.30289 3.16884 2.1602C2.55694 3.20534 2.23629 4.39536 2.24023 5.60644C2.24023 7.97598 3.44502 10.0653 5.28221 11.2941C4.19952 11.2515 3.14219 10.9539 2.19621 10.4256V10.5096C2.19621 13.8278 4.54173 16.5776 7.66776 17.21C7.08081 17.3624 6.47701 17.4404 5.87059 17.4421C5.4263 17.4421 5.00603 17.3981 4.58175 17.3381C5.44631 20.0438 7.96395 22.0091 10.9619 22.0731C8.61637 23.9103 5.67846 24.991 2.48839 24.991C1.91602 24.991 1.38768 24.971 0.839325 24.907C3.86529 26.8482 7.45562 27.969 11.3221 27.969C23.8743 27.969 30.7427 17.5702 30.7427 8.54435C30.7427 8.24815 30.7427 7.95196 30.7227 7.65577C32.0516 6.68314 33.2163 5.47836 34.1449 4.12548Z" fill="#2091F9"/>
</svg>
