<svg width="33" height="33" viewBox="0 0 33 33" fill="none" xmlns="http://www.w3.org/2000/svg">
<path d="M31.2103 0.429688H1.75121C1.04275 0.429688 0.470383 1.00206 0.470383 1.71052V31.1696C0.470383 31.8781 1.04275 32.4505 1.75121 32.4505H31.2103C31.9188 32.4505 32.4912 31.8781 32.4912 31.1696V1.71052C32.4912 1.00206 31.9188 0.429688 31.2103 0.429688ZM27.5119 9.77575H24.9543C22.949 9.77575 22.5607 10.7284 22.5607 12.1293V15.2153H27.3478L26.7234 20.0464H22.5607V32.4505H17.5695V20.0504H13.3948V15.2153H17.5695V11.653C17.5695 7.51829 20.0951 5.26482 23.7855 5.26482C25.5547 5.26482 27.0716 5.39691 27.5159 5.45695V9.77575H27.5119Z" fill="#2091F9"/>
</svg>
