<svg width="33" height="33" viewBox="0 0 33 33" fill="none" xmlns="http://www.w3.org/2000/svg">
<path d="M31.1981 0.429688H1.73899C1.03053 0.429688 0.45816 1.00206 0.45816 1.71052V31.1696C0.45816 31.8781 1.03053 32.4505 1.73899 32.4505H31.1981C31.9066 32.4505 32.4789 31.8781 32.4789 31.1696V1.71052C32.4789 1.00206 31.9066 0.429688 31.1981 0.429688ZM9.95632 27.7154H5.20524V12.4335H9.95632V27.7154ZM7.58278 10.3441C7.03814 10.3441 6.50572 10.1826 6.05286 9.88002C5.6 9.57743 5.24704 9.14735 5.03862 8.64416C4.83019 8.14097 4.77565 7.58728 4.88191 7.0531C4.98817 6.51891 5.25044 6.02824 5.63556 5.64311C6.02069 5.25799 6.51136 4.99572 7.04555 4.88946C7.57973 4.7832 8.13342 4.83774 8.63661 5.04617C9.1398 5.25459 9.56988 5.60755 9.87247 6.06041C10.1751 6.51327 10.3366 7.04569 10.3366 7.59033C10.3326 9.11132 9.09977 10.3441 7.58278 10.3441ZM27.7439 27.7154H22.9968V20.2826C22.9968 18.5094 22.9648 16.2319 20.5272 16.2319C18.0576 16.2319 17.6773 18.1612 17.6773 20.1545V27.7154H12.9343V12.4335H17.4892V14.5228H17.5533C18.1857 13.3221 19.7347 12.0532 22.0482 12.0532C26.8593 12.0532 27.7439 15.2193 27.7439 19.334V27.7154Z" fill="#2091F9"/>
</svg>
