<svg width="62" height="58" viewBox="0 0 62 58" fill="none" xmlns="http://www.w3.org/2000/svg">
<path d="M62 40.4345V51.9016C62 53.4223 61.3468 54.8806 60.1841 55.9559C59.0213 57.0311 57.4443 57.6352 55.8 57.6352H43.4V51.9016C43.4 50.381 42.7468 48.9226 41.5841 47.8474C40.4213 46.7721 38.8443 46.168 37.2 46.168C35.5557 46.168 33.9787 46.7721 32.8159 47.8474C31.6532 48.9226 31 50.381 31 51.9016V57.6352H18.6C16.9557 57.6352 15.3787 57.0311 14.2159 55.9559C13.0532 54.8806 12.4 53.4223 12.4 51.9016V40.4345H6.2C4.55566 40.4345 2.97866 39.8304 1.81594 38.7551C0.653212 37.6799 0 36.2215 0 34.7009C0 33.1802 0.653212 31.7219 1.81594 30.6466C2.97866 29.5714 4.55566 28.9673 6.2 28.9673H12.4V17.5002C12.4 14.3467 15.19 11.7666 18.6 11.7666H31V6.03301C31 4.51237 31.6532 3.05402 32.8159 1.97876C33.9787 0.90351 35.5557 0.299438 37.2 0.299438C38.8443 0.299438 40.4213 0.90351 41.5841 1.97876C42.7468 3.05402 43.4 4.51237 43.4 6.03301V11.7666H55.8C57.4443 11.7666 59.0213 12.3707 60.1841 13.4459C61.3468 14.5212 62 15.9795 62 17.5002V28.9673H55.8C54.1557 28.9673 52.5787 29.5714 51.4159 30.6466C50.2532 31.7219 49.6 33.1802 49.6 34.7009C49.6 36.2215 50.2532 37.6799 51.4159 38.7551C52.5787 39.8304 54.1557 40.4345 55.8 40.4345H62Z" fill="#2091F9"/>
</svg>
